<svg width="169" height="150" viewBox="0 0 169 150" fill="none" xmlns="http://www.w3.org/2000/svg">
<path fill-rule="evenodd" clip-rule="evenodd" d="M84.62 0.724334C84.5367 0.724281 84.4534 0.724349 84.3701 0.724538L84.3724 1.72454C84.4547 1.72435 84.537 1.72428 84.6193 1.72433C84.7017 1.72439 84.7841 1.72456 84.8664 1.72485L84.87 0.724856C84.7867 0.724561 84.7033 0.724387 84.62 0.724334ZM81.3848 0.783307C81.2197 0.789442 81.0547 0.796054 80.8898 0.803139L80.9327 1.80222C81.0957 1.79521 81.2588 1.78868 81.422 1.78262L81.3848 0.783307ZM88.3501 0.807879C88.1852 0.800584 88.0202 0.793762 87.8551 0.787417L87.8167 1.78668C87.9799 1.79295 88.143 1.79969 88.3059 1.8069L88.3501 0.807879ZM77.9101 0.983604C77.745 0.99652 77.58 1.00991 77.4152 1.02378L77.499 2.02026C77.6619 2.00656 77.8249 1.99332 77.9881 1.98056L77.9101 0.983604ZM91.8245 1.03293C91.6596 1.01886 91.4947 1.00525 91.3296 0.992129L91.2503 1.98898C91.4135 2.00195 91.5765 2.0154 91.7394 2.02931L91.8245 1.03293ZM74.448 1.3262C74.2833 1.34593 74.1187 1.36615 73.9543 1.38683L74.0791 2.37901C74.2416 2.35857 74.4042 2.3386 74.567 2.3191L74.448 1.3262ZM95.2849 1.40038C95.1205 1.37949 94.956 1.35907 94.7913 1.33912L94.671 2.33187C94.8338 2.35158 94.9964 2.37176 95.1589 2.3924L95.2849 1.40038ZM71.0039 1.8112C70.8399 1.83776 70.676 1.8648 70.5123 1.89231L70.6781 2.87848C70.8398 2.8513 71.0017 2.82458 71.1638 2.79833L71.0039 1.8112ZM98.7262 1.91023C98.5625 1.88251 98.3987 1.85527 98.2348 1.8285L98.0736 2.81542C98.2356 2.84188 98.3975 2.8688 98.5592 2.89619L98.7262 1.91023ZM67.5832 2.43833C67.4203 2.47171 67.2575 2.50555 67.095 2.53987L67.3015 3.51831C67.4621 3.4844 67.6229 3.45096 67.7839 3.41798L67.5832 2.43833ZM102.143 2.56213C101.98 2.52761 101.817 2.49355 101.655 2.45997L101.453 3.43937C101.614 3.47255 101.774 3.5062 101.935 3.54031L102.143 2.56213ZM64.1877 3.20793C64.0272 3.24782 63.867 3.28817 63.7069 3.32899L63.9539 4.29799C64.1121 4.25766 64.2704 4.21779 64.429 4.17838L64.1877 3.20793ZM105.53 3.35555C105.37 3.31453 105.21 3.27397 105.049 3.23388L104.807 4.20402C104.965 4.24364 105.123 4.28371 105.282 4.32423L105.53 3.35555ZM60.8278 4.11806C60.6689 4.16467 60.5103 4.21172 60.3518 4.25924L60.6391 5.2171C60.7956 5.17016 60.9524 5.12366 61.1093 5.07762L60.8278 4.11806ZM108.884 4.29005C108.725 4.24234 108.567 4.19508 108.408 4.14828L108.125 5.10748C108.282 5.15372 108.439 5.20041 108.595 5.24756L108.884 4.29005ZM57.5096 5.16713C57.3527 5.22037 57.1959 5.27405 57.0394 5.32818L57.3663 6.27324C57.5209 6.21976 57.6758 6.16672 57.8308 6.11413L57.5096 5.16713ZM112.195 5.3632C112.038 5.30887 111.882 5.25499 111.725 5.20156L111.402 6.14815C111.557 6.20094 111.712 6.25417 111.867 6.30785L112.195 5.3632ZM54.2384 6.35331C54.0837 6.41307 53.9293 6.47328 53.7751 6.53393L54.141 7.46457C54.2934 7.40464 54.446 7.34516 54.5988 7.28611L54.2384 6.35331ZM115.458 6.57309C115.303 6.51225 115.149 6.45185 114.994 6.39189L114.633 7.32423C114.786 7.38347 114.938 7.44315 115.09 7.50327L115.458 6.57309ZM51.0198 7.67447C50.8676 7.74065 50.7157 7.80726 50.5641 7.87431L50.9684 8.78892C51.1182 8.72268 51.2683 8.65686 51.4186 8.59148L51.0198 7.67447ZM118.667 7.91755C118.515 7.85031 118.363 7.7835 118.211 7.71713L117.811 8.63363C117.962 8.6992 118.112 8.76521 118.261 8.83165L118.667 7.91755ZM47.8589 9.1282C47.7096 9.20066 47.5606 9.27355 47.4118 9.34687L47.8537 10.2439C48.0007 10.1715 48.148 10.0994 48.2955 10.0279L47.8589 9.1282ZM121.817 9.3941C121.669 9.3206 121.52 9.24752 121.37 9.17487L120.933 10.074C121.08 10.1457 121.227 10.218 121.374 10.2906L121.817 9.3941ZM44.7603 10.7123C44.6144 10.7907 44.4687 10.8696 44.3233 10.9489L44.8021 11.8268C44.9458 11.7485 45.0897 11.6706 45.2339 11.593L44.7603 10.7123ZM124.904 11C124.758 10.9206 124.613 10.8415 124.467 10.7629L123.992 11.643C124.136 11.7207 124.28 11.7989 124.424 11.8774L124.904 11ZM127.922 12.7329C127.78 12.6475 127.638 12.5625 127.495 12.478L126.985 13.3377C127.125 13.4213 127.266 13.5053 127.406 13.5896L127.922 12.7329ZM41.7297 12.4235C41.5872 12.5079 41.445 12.5927 41.3031 12.6779L41.8177 13.5353C41.958 13.4511 42.0985 13.3673 42.2393 13.2839L41.7297 12.4235ZM130.866 14.5891C130.727 14.4979 130.589 14.4071 130.45 14.3167L129.904 15.1546C130.041 15.2439 130.178 15.3337 130.315 15.4238L130.866 14.5891ZM38.7728 14.2585C38.6339 14.3487 38.4952 14.4394 38.3568 14.5304L38.9065 15.3658C39.0432 15.2758 39.1802 15.1863 39.3175 15.0971L38.7728 14.2585ZM133.73 16.565C133.596 16.4681 133.461 16.3717 133.326 16.2756L132.746 17.0903C132.879 17.1852 133.013 17.2806 133.145 17.3763L133.73 16.565ZM35.8944 16.2137C35.7592 16.3097 35.6244 16.406 35.4899 16.5027L36.0735 17.3147C36.2064 17.2191 36.3397 17.124 36.4732 17.0292L35.8944 16.2137ZM136.51 18.6572C136.38 18.5548 136.249 18.4528 136.119 18.3513L135.506 19.1414C135.635 19.2418 135.764 19.3425 135.893 19.4437L136.51 18.6572ZM33.0991 18.2859C32.968 18.3873 32.8372 18.4891 32.7067 18.5913L33.3233 19.3786C33.4522 19.2776 33.5815 19.177 33.711 19.0768L33.0991 18.2859ZM139.202 20.8619C139.076 20.7542 138.95 20.647 138.823 20.5401L138.178 21.3043C138.304 21.41 138.428 21.516 138.553 21.6223L139.202 20.8619ZM30.3914 20.4713C30.2646 20.578 30.1382 20.6851 30.012 20.7926L30.6604 21.5539C30.7851 21.4477 30.9101 21.3418 31.0354 21.2364L30.3914 20.4713ZM141.801 23.1754C141.68 23.0627 141.558 22.9503 141.436 22.8383L140.76 23.5754C140.881 23.6861 141.001 23.7971 141.121 23.9085L141.801 23.1754ZM27.7759 22.7662C27.6536 22.878 27.5316 22.9902 27.41 23.1028L28.0891 23.8368C28.2093 23.7255 28.3299 23.6147 28.4507 23.5041L27.7759 22.7662ZM144.303 25.5938C144.187 25.4762 144.07 25.3589 143.952 25.242L143.247 25.9508C143.363 26.0663 143.478 26.1821 143.594 26.2983L144.303 25.5938ZM25.2567 25.1667C25.1391 25.2835 25.0219 25.4006 24.905 25.518L25.6137 26.2235C25.7292 26.1074 25.8451 25.9917 25.9613 25.8763L25.2567 25.1667ZM146.704 28.1129C146.592 27.9906 146.48 27.8687 146.367 27.747L145.633 28.4262C145.745 28.5464 145.855 28.6669 145.966 28.7878L146.704 28.1129ZM22.8383 27.6686C22.7256 27.7901 22.6133 27.912 22.5013 28.0341L23.2384 28.7099C23.3491 28.5892 23.4601 28.4688 23.5715 28.3487L22.8383 27.6686ZM148.999 30.7285C148.892 30.6017 148.785 30.4752 148.678 30.349L147.916 30.9974C148.022 31.1221 148.128 31.2471 148.234 31.3724L148.999 30.7285ZM20.5248 30.2677C20.4172 30.3937 20.3099 30.5201 20.203 30.6468L20.9673 31.2917C21.0729 31.1665 21.1789 31.0416 21.2853 30.9171L20.5248 30.2677ZM151.184 33.4361C151.083 33.305 150.981 33.1743 150.879 33.0438L150.092 33.6604C150.193 33.7893 150.293 33.9185 150.393 34.048L151.184 33.4361ZM18.3201 32.9597C18.2178 33.09 18.1158 33.2207 18.0142 33.3516L18.8044 33.9645C18.9047 33.8351 19.0055 33.706 19.1066 33.5772L18.3201 32.9597ZM153.256 36.2314C153.16 36.0963 153.064 35.9614 152.967 35.8269L152.155 36.4105L152.243 36.5321C152.309 36.6247 152.375 36.7174 152.441 36.8103L153.256 36.2314ZM16.228 35.7401C16.1311 35.8745 16.0346 36.0093 15.9385 36.1443L16.7532 36.7241C16.8482 36.5907 16.9435 36.4576 17.0393 36.3248L16.228 35.7401ZM155.212 39.1098C155.121 38.9709 155.031 38.8323 154.94 38.6939L154.104 39.2435C154.194 39.3803 154.284 39.5173 154.373 39.6546L155.212 39.1098ZM14.2521 38.6046C14.1609 38.7428 14.07 38.8814 13.9796 39.0202L14.8175 39.566C14.9069 39.4288 14.9966 39.2919 15.0868 39.1553L14.2521 38.6046ZM12.3959 41.5484C12.3105 41.6903 12.2255 41.8324 12.1409 41.9748L13.0007 42.4855C13.0843 42.3448 13.1682 42.2044 13.2526 42.0642L12.3959 41.5484ZM157.047 42.0668C156.962 41.9243 156.877 41.7821 156.792 41.6401L155.935 42.1548C156.019 42.295 156.103 42.4356 156.186 42.5764L157.047 42.0668ZM10.663 44.5665C10.5835 44.7118 10.5045 44.8574 10.4258 45.0032L11.306 45.4779C11.3837 45.3338 11.4618 45.19 11.5404 45.0464L10.663 44.5665ZM158.758 45.0974C158.679 44.9515 158.601 44.8058 158.521 44.6604L157.643 45.1391C157.722 45.2828 157.8 45.4267 157.877 45.5709L158.758 45.0974ZM9.05707 47.6529C8.98357 47.8016 8.91049 47.9506 8.83784 48.0998L9.73693 48.5375C9.80871 48.3901 9.88092 48.2429 9.95355 48.096L9.05707 47.6529ZM160.342 48.196L160.28 48.0685C160.256 48.0192 160.232 47.9699 160.208 47.9206C160.18 47.8633 160.151 47.806 160.123 47.7488L159.226 48.1908C159.299 48.3378 159.371 48.4851 159.442 48.6326L160.342 48.196ZM7.58051 50.8033C7.51327 50.9549 7.44647 51.1067 7.3801 51.2588L8.29659 51.6588C8.36217 51.5086 8.42818 51.3586 8.49461 51.2088L7.58051 50.8033ZM161.796 51.3568C161.729 51.2047 161.663 51.0528 161.596 50.9011L160.681 51.3054C160.747 51.4553 160.813 51.6054 160.879 51.7557L161.796 51.3568ZM6.23606 54.0126C6.17521 54.1668 6.11481 54.3211 6.05486 54.4757L6.9872 54.8373C7.04644 54.6846 7.10612 54.532 7.16623 54.3797L6.23606 54.0126ZM163.117 54.5755C163.057 54.4208 162.997 54.2663 162.936 54.1121L162.006 54.478C162.065 54.6304 162.125 54.783 162.184 54.9359L163.117 54.5755ZM5.02616 57.2754C4.97184 57.4319 4.91796 57.5885 4.86453 57.7454L5.81111 58.0678C5.8639 57.9128 5.91714 57.7581 5.97082 57.6035L5.02616 57.2754ZM164.303 57.8466C164.25 57.6897 164.196 57.533 164.142 57.3765L163.197 57.7034C163.25 57.858 163.303 58.0128 163.356 58.1679L164.303 57.8466ZM3.95302 60.5865C3.90531 60.7449 3.85805 60.9035 3.81124 61.0622L4.77044 61.345C4.81669 61.1881 4.86338 61.0314 4.91052 60.8749L3.95302 60.5865ZM165.282 60.9259C165.258 60.8468 165.235 60.7678 165.211 60.6889L164.253 60.9761C164.276 61.052 164.298 61.1279 164.321 61.2039C164.345 61.2846 164.369 61.3655 164.393 61.4464L165.352 61.1648C165.329 61.0851 165.305 61.0055 165.282 60.9259ZM3.01851 63.9403C2.9775 64.1004 2.93694 64.2606 2.89684 64.421L3.86699 64.6635C3.9066 64.505 3.94667 64.3467 3.9872 64.1886L3.01851 63.9403ZM166.235 64.417C166.223 64.366 166.21 64.3151 166.197 64.2641C166.186 64.2218 166.176 64.1795 166.165 64.1372C166.157 64.1061 166.149 64.075 166.141 64.0439L165.172 64.291C165.195 64.3826 165.219 64.4744 165.242 64.5662C165.259 64.6328 165.275 64.6994 165.292 64.766L166.262 64.5247C166.253 64.4888 166.244 64.4529 166.235 64.417ZM2.2251 67.3274C2.19057 67.4899 2.15652 67.6526 2.12293 67.8155L3.10233 68.0175C3.13551 67.8565 3.16916 67.6958 3.20327 67.5352L2.2251 67.3274ZM167.032 67.9202C166.998 67.7573 166.965 67.5946 166.93 67.432L165.952 67.6385C165.986 67.7992 166.019 67.96 166.052 68.121L167.032 67.9202ZM1.5732 70.744C1.54548 70.9076 1.51823 71.0714 1.49146 71.2354L2.47839 71.3965C2.50484 71.2345 2.53177 71.0726 2.55915 70.911L1.5732 70.744ZM167.659 71.3409C167.632 71.1769 167.605 71.0131 167.578 70.8494L166.592 71.0152C166.619 71.1769 166.646 71.3388 166.672 71.5008L167.659 71.3409ZM1.06335 74.1852C1.04245 74.3496 1.02203 74.5142 1.00209 74.6789L1.99484 74.7991C2.01454 74.6363 2.03472 74.4737 2.05537 74.3113L1.06335 74.1852ZM168.144 74.785C168.124 74.6203 168.104 74.4557 168.083 74.2913L167.091 74.4161C167.112 74.5786 167.132 74.7412 167.151 74.904L168.144 74.785ZM0.6959 77.6457C0.681823 77.8105 0.66822 77.9754 0.655094 78.1405L1.65195 78.2198C1.66492 78.0566 1.67836 77.8936 1.69227 77.7308L0.6959 77.6457ZM168.464 77.9704C168.458 77.8976 168.452 77.8249 168.446 77.7522L167.45 77.8361C167.464 77.9989 167.477 78.162 167.49 78.3252L168.487 78.2472C168.479 78.1549 168.472 78.0626 168.464 77.9704ZM0.470844 81.12C0.463549 81.2849 0.456728 81.4499 0.450383 81.615L1.44965 81.6534C1.45592 81.4902 1.46266 81.3271 1.46987 81.1642L0.470844 81.12ZM168.687 81.7219C168.683 81.6226 168.679 81.5234 168.675 81.4242L168.667 81.2268L167.668 81.2698C167.675 81.4327 167.681 81.5958 167.688 81.759L168.687 81.7219ZM0.387821 84.6002C0.387526 84.6835 0.387352 84.7668 0.387299 84.8502C0.387246 84.9335 0.387315 85.0168 0.387504 85.1L1.3875 85.0978C1.38731 85.0155 1.38725 84.9331 1.3873 84.8508C1.38735 84.7684 1.38752 84.686 1.38782 84.6037L0.387821 84.6002ZM168.746 84.957C168.746 84.8737 168.746 84.7904 168.746 84.7071L167.746 84.7094C167.746 84.7917 167.746 84.874 167.746 84.9564C167.746 85.0388 167.746 85.1211 167.745 85.2035L168.745 85.207C168.746 85.1237 168.746 85.0404 168.746 84.957ZM0.446272 88.0853C0.452408 88.2504 0.459019 88.4154 0.466105 88.5803L1.46518 88.5374C1.45818 88.3744 1.45165 88.2113 1.44558 88.0482L0.446272 88.0853ZM168.662 88.6872C168.67 88.5223 168.676 88.3573 168.683 88.1922L167.683 88.1538C167.677 88.317 167.67 88.48 167.663 88.643L168.662 88.6872ZM0.646569 91.56C0.659486 91.7251 0.672879 91.8901 0.686747 92.055L1.68323 91.9711C1.66952 91.8082 1.65629 91.6452 1.64352 91.482L0.646569 91.56ZM168.437 92.1615C168.451 91.9967 168.465 91.8317 168.478 91.6666L167.481 91.5874C167.468 91.7505 167.455 91.9135 167.441 92.0764L168.437 92.1615ZM0.989164 95.0221C1.0089 95.1869 1.02911 95.3514 1.0498 95.5159L2.04198 95.3911C2.02154 95.2286 2.00157 95.0659 1.98206 94.9032L0.989164 95.0221ZM168.07 95.622C168.091 95.4576 168.111 95.293 168.131 95.1283L167.138 95.0081C167.119 95.1708 167.098 95.3334 167.078 95.4959L168.07 95.622ZM1.47416 98.4663C1.50073 98.6303 1.52777 98.7941 1.55528 98.9578L2.54144 98.792C2.51426 98.6303 2.48754 98.4684 2.4613 98.3064L1.47416 98.4663ZM167.56 99.0632L167.595 98.8524C167.611 98.7589 167.626 98.6654 167.642 98.5718L166.655 98.4107C166.628 98.5727 166.601 98.7345 166.574 98.8962L167.56 99.0632ZM2.10129 101.887C2.13467 102.05 2.16852 102.213 2.20283 102.375L3.18127 102.169C3.14737 102.008 3.11392 101.847 3.08095 101.686L2.10129 101.887ZM166.977 102.153C166.988 102.099 166.999 102.046 167.01 101.992L166.031 101.79C165.998 101.951 165.964 102.111 165.93 102.272L166.908 102.48C166.931 102.371 166.954 102.262 166.977 102.153ZM2.87089 105.282C2.91078 105.443 2.95114 105.603 2.99195 105.763L3.96095 105.516C3.92063 105.358 3.88076 105.2 3.84134 105.041L2.87089 105.282ZM166.115 105.867C166.156 105.707 166.196 105.547 166.236 105.386L165.266 105.144C165.226 105.302 165.186 105.46 165.146 105.619L166.115 105.867ZM3.78103 108.642C3.82763 108.801 3.87469 108.96 3.9222 109.118L4.88007 108.831C4.83312 108.675 4.78663 108.518 4.74059 108.361L3.78103 108.642ZM165.18 109.221L165.239 109.024C165.267 108.931 165.294 108.838 165.322 108.745L164.363 108.462C164.316 108.619 164.27 108.776 164.223 108.932L165.18 109.221ZM4.8301 111.961C4.88333 112.117 4.93701 112.274 4.99114 112.431L5.93621 112.104C5.88273 111.949 5.82969 111.794 5.77709 111.639L4.8301 111.961ZM164.107 112.532C164.161 112.375 164.215 112.219 164.269 112.062L163.322 111.739C163.269 111.894 163.216 112.049 163.162 112.204L164.107 112.532ZM6.01628 115.232C6.07604 115.386 6.13624 115.541 6.19689 115.695L7.12753 115.329C7.06761 115.177 7.00812 115.024 6.94908 114.871L6.01628 115.232ZM162.897 115.795C162.958 115.64 163.018 115.486 163.078 115.331L162.146 114.97C162.087 115.123 162.027 115.275 161.967 115.427L162.897 115.795ZM7.33744 118.45C7.40361 118.602 7.47022 118.754 7.53727 118.906L8.45189 118.502C8.38564 118.352 8.31982 118.202 8.25444 118.051L7.33744 118.45ZM161.672 118.732C161.699 118.671 161.726 118.61 161.753 118.548L160.836 118.148C160.803 118.225 160.77 118.301 160.736 118.377C160.704 118.451 160.671 118.525 160.638 118.598L161.553 119.004C161.593 118.913 161.633 118.823 161.672 118.732ZM8.79117 121.611C8.86363 121.761 8.93651 121.91 9.00983 122.058L9.90687 121.616C9.83443 121.469 9.76241 121.322 9.69081 121.175L8.79117 121.611ZM160.13 122.045C160.156 121.991 160.183 121.938 160.209 121.884L160.295 121.707L159.396 121.27C159.324 121.417 159.252 121.564 159.18 121.711L160.076 122.154C160.094 122.118 160.112 122.081 160.13 122.045ZM10.3752 124.71C10.4537 124.856 10.5326 125.001 10.6119 125.147L11.4898 124.668C11.4115 124.524 11.3335 124.38 11.256 124.236L10.3752 124.71ZM158.47 125.241L158.566 125.064C158.614 124.977 158.66 124.891 158.707 124.804L157.827 124.329L157.748 124.475C157.697 124.57 157.645 124.666 157.593 124.761L158.47 125.241ZM12.0865 127.74C12.1709 127.883 12.2557 128.025 12.3409 128.167L13.1983 127.652C13.1141 127.512 13.0303 127.372 12.9469 127.231L12.0865 127.74ZM156.737 128.259C156.823 128.117 156.908 127.975 156.992 127.832L156.132 127.322L156.043 127.472C155.989 127.562 155.935 127.653 155.88 127.743L156.737 128.259ZM155.039 130.962C155.077 130.904 155.115 130.845 155.153 130.787L154.316 130.241C154.226 130.378 154.136 130.515 154.046 130.652L154.881 131.203C154.934 131.122 154.987 131.042 155.039 130.962ZM13.9214 130.697C14.0117 130.836 14.1023 130.975 14.1934 131.113L15.0287 130.564C14.9388 130.427 14.8492 130.29 14.76 130.153L13.9214 130.697ZM152.905 134.067C153.002 133.933 153.098 133.798 153.195 133.663L152.38 133.083C152.285 133.216 152.19 133.35 152.094 133.482L152.905 134.067ZM15.8767 133.576C15.9726 133.711 16.0689 133.846 16.1656 133.98L16.9777 133.397C16.8821 133.264 16.7869 133.13 16.6921 132.997L15.8767 133.576ZM150.813 136.848C150.915 136.717 151.017 136.587 151.119 136.456L150.329 135.843C150.228 135.972 150.128 136.101 150.026 136.23L150.813 136.848ZM17.9488 136.371C18.0503 136.502 18.1521 136.633 18.2542 136.763L19.0415 136.147C18.9406 136.018 18.84 135.889 18.7398 135.759L17.9488 136.371ZM148.608 139.539C148.716 139.413 148.823 139.287 148.93 139.16L148.166 138.515C148.06 138.641 147.954 138.766 147.848 138.89L148.608 139.539ZM20.1342 139.079C20.241 139.205 20.3481 139.332 20.4555 139.458L21.2168 138.81C21.1106 138.685 21.0048 138.56 20.8993 138.435L20.1342 139.079ZM146.295 142.139C146.407 142.017 146.52 141.895 146.632 141.773L145.895 141.097C145.784 141.218 145.673 141.338 145.562 141.458L146.295 142.139ZM22.4291 141.694C22.541 141.817 22.6532 141.939 22.7657 142.06L23.4997 141.381C23.3885 141.261 23.2776 141.14 23.1671 141.019L22.4291 141.694ZM143.876 144.64C143.994 144.524 144.111 144.407 144.228 144.289L143.519 143.584L143.424 143.68C143.34 143.764 143.256 143.847 143.172 143.931L143.876 144.64ZM24.8297 144.213C24.9464 144.331 25.0635 144.448 25.181 144.565L25.8864 143.856C25.7704 143.741 25.6547 143.625 25.5393 143.509L24.8297 144.213ZM141.629 146.791C141.661 146.762 141.692 146.733 141.723 146.704L141.044 145.97C140.99 146.02 140.936 146.07 140.883 146.119C140.816 146.181 140.749 146.242 140.682 146.303L141.357 147.041C141.448 146.958 141.539 146.875 141.629 146.791ZM27.3316 146.632C27.4531 146.745 27.5749 146.857 27.6971 146.969L28.3729 146.232C28.2521 146.121 28.1317 146.01 28.0117 145.899L27.3316 146.632ZM138.742 149.336C138.868 149.229 138.995 149.122 139.121 149.015L138.473 148.253C138.404 148.311 138.336 148.369 138.268 148.427L138.098 148.571L138.742 149.336ZM29.9307 148.945C30.0567 149.053 30.1831 149.16 30.3097 149.267L30.9546 148.503C30.8295 148.397 30.7046 148.291 30.5801 148.185L29.9307 148.945Z" fill="#9499C3"/>
<rect x="0.329803" y="84.3304" width="5.57862" height="1.11572" transform="rotate(0.0363704 0.329803 84.3304)" fill="#9499C3"/>
<rect x="163.225" y="84.4338" width="5.57862" height="1.11572" transform="rotate(0.0363704 163.225 84.4338)" fill="#9499C3"/>
<rect width="5.57862" height="1.11572" transform="matrix(-0.818787 -0.574097 -0.574096 0.818788 156.34 129.056)" fill="#9499C3"/>
</svg>
