<svg width="22" height="22" viewBox="0 0 22 22" fill="none" xmlns="http://www.w3.org/2000/svg">
<path d="M18.8353 20.5717H3.09986C2.74144 20.5717 2.44421 20.2745 2.44421 19.9161C2.44421 19.5577 2.74144 19.2605 3.09986 19.2605H18.8353C19.1938 19.2605 19.491 19.5577 19.491 19.9161C19.491 20.2745 19.1938 20.5717 18.8353 20.5717Z" fill="#7B7B7B"/>
<path d="M5.37274 17.9491H3.97405C3.13483 17.9491 2.44421 17.2585 2.44421 16.4192V8.88367C2.44421 8.04445 3.13483 7.35384 3.97405 7.35384H5.37274C6.21197 7.35384 6.90258 8.04445 6.90258 8.88367V16.4192C6.90258 17.2585 6.21197 17.9491 5.37274 17.9491ZM3.97405 8.65638C3.85167 8.65638 3.7555 8.75254 3.7555 8.87492V16.4192C3.7555 16.5416 3.85167 16.6378 3.97405 16.6378H5.37274C5.49513 16.6378 5.59129 16.5416 5.59129 16.4192V8.88367C5.59129 8.76129 5.49513 8.66513 5.37274 8.66513H3.97405V8.65638Z" fill="#7B7B7B"/>
<path d="M11.6671 17.9491H10.2684C9.4292 17.9491 8.73859 17.2585 8.73859 16.4192V6.09505C8.73859 5.25583 9.4292 4.56522 10.2684 4.56522H11.6671C12.5064 4.56522 13.197 5.25583 13.197 6.09505V16.4192C13.197 17.2585 12.5064 17.9491 11.6671 17.9491ZM10.2684 5.87651C10.146 5.87651 10.0499 5.97267 10.0499 6.09505V16.4192C10.0499 16.5416 10.146 16.6378 10.2684 16.6378H11.6671C11.7895 16.6378 11.8857 16.5416 11.8857 16.4192V6.09505C11.8857 5.97267 11.7895 5.87651 11.6671 5.87651H10.2684Z" fill="#7B7B7B"/>
<path d="M17.9615 17.9492H16.5628C15.7236 17.9492 15.033 17.2585 15.033 16.4193V3.30642C15.033 2.46719 15.7236 1.77658 16.5628 1.77658H17.9615C18.8007 1.77658 19.4913 2.46719 19.4913 3.30642V16.4193C19.4913 17.2585 18.8007 17.9492 17.9615 17.9492ZM16.5628 3.08787C16.4404 3.08787 16.3442 3.18403 16.3442 3.30642V16.4193C16.3442 16.5417 16.4404 16.6379 16.5628 16.6379H17.9615C18.0839 16.6379 18.1801 16.5417 18.1801 16.4193V3.30642C18.1801 3.18403 18.0839 3.08787 17.9615 3.08787H16.5628Z" fill="#7B7B7B"/>
</svg>
