<svg width="42" height="48" viewBox="0 0 42 48" fill="none" xmlns="http://www.w3.org/2000/svg">
<path fill-rule="evenodd" clip-rule="evenodd" d="M33.0369 9.05583C32.9038 8.97496 32.7691 8.89563 32.6331 8.81786C24.3246 4.06986 13.7403 6.95615 8.99233 15.2646C4.24434 23.573 7.13063 34.1573 15.439 38.9053C15.5751 38.9831 15.7118 39.0588 15.8491 39.1325L33.0369 9.05583Z" fill="url(#paint0_linear_233_385)"/>
<path fill-rule="evenodd" clip-rule="evenodd" d="M9.09678 39.0023C9.22993 39.0831 9.36454 39.1625 9.50061 39.2402C17.809 43.9882 28.3933 41.1019 33.1413 32.7935C37.8893 24.4851 35.003 13.9008 26.6946 9.15278C26.5586 9.07502 26.4219 8.99931 26.2846 8.92564L9.09678 39.0023Z" fill="url(#paint1_linear_233_385)"/>
<defs>
<linearGradient id="paint0_linear_233_385" x1="33.1074" y1="7.50563" x2="16.2508" y2="37.473" gradientUnits="userSpaceOnUse">
<stop stop-color="#F9C576"/>
<stop offset="0.65366" stop-color="#CCB2A3" stop-opacity="0.34634"/>
<stop offset="1" stop-color="#F9BD76" stop-opacity="0"/>
</linearGradient>
<linearGradient id="paint1_linear_233_385" x1="9.09369" y1="39.8276" x2="23.6108" y2="14.5397" gradientUnits="userSpaceOnUse">
<stop stop-color="#C1833B"/>
<stop offset="1" stop-color="#FF5C00" stop-opacity="0"/>
</linearGradient>
</defs>
</svg>
